<?xml version="1.0" standalone="no"?>
<!DOCTYPE svg PUBLIC "-//W3C//DTD SVG 20010904//EN"
 "http://www.w3.org/TR/2001/REC-SVG-20010904/DTD/svg10.dtd">
<svg version="1.0" xmlns="http://www.w3.org/2000/svg"
 width="500.000000pt" height="500.000000pt" viewBox="0 0 500.000000 500.000000"
 preserveAspectRatio="xMidYMid meet">

<g transform="translate(0.000000,500.000000) scale(0.100000,-0.100000)"
fill="#000000" stroke="none">
<path d="M2290 3785 c-297 -55 -529 -179 -723 -385 -175 -185 -282 -402 -337
-678 -13 -69 -13 -345 0 -414 58 -294 166 -506 356 -702 206 -211 453 -331
771 -376 99 -14 181 -13 304 5 309 44 530 153 745 369 198 199 304 396 360
671 22 107 22 361 1 472 -95 485 -453 875 -927 1007 -160 45 -403 59 -550 31z
m375 -240 c387 -63 699 -328 831 -706 82 -234 65 -530 -44 -762 -174 -371
-537 -606 -942 -609 -242 -2 -440 62 -634 206 -361 269 -512 750 -369 1176
162 481 654 777 1158 695z"/>
<path d="M3038 3068 c-19 -6 -117 -121 -302 -352 -151 -189 -282 -346 -291
-350 -9 -3 -30 -6 -47 -6 -35 0 -58 22 -202 187 -123 142 -137 153 -193 153
-38 0 -51 -6 -78 -33 -39 -39 -50 -72 -41 -122 6 -32 21 -52 121 -170 24 -27
97 -114 164 -192 79 -93 135 -150 161 -163 75 -38 160 -19 226 52 18 18 98
123 180 233 81 110 211 286 289 391 78 104 147 200 154 211 26 51 7 113 -48
150 -37 25 -52 27 -93 11z"/>
</g>
</svg>
